# xmcd
#
# Track frame offsets:
# 150
# 13190
# 28129
# 40924
# 53788
# 65294
# 77793
# 90711
# 109557
# 122844
# 138756
# 149437
# 162114
# 174670
# 186501
# 201015
#
# Disc length: 2871 seconds
#
# Revision: 1
# Processed by: cddbd v1.5.2PL0 Copyright (c) Steve Scherf et al.
# Submitted via: Easy CD Ripper 2.3.10
#
DISCID=dd0b3510
DTITLE=Koerner, Ray and Glover - One Foot In The Groove
DYEAR=2006
DGENRE=Blues
TTITLE0=Black Jack Davy - Koerner, Ray and Glover
TTITLE1=Shout Sister Shout - Koerner, Ray and Glover
TTITLE2=Shenendoah - Koerner, Ray and Glover
TTITLE3=Terra Mae - Koerner, Ray and Glover
TTITLE4=Shortnin' Bread - Koerner, Ray and Glover
TTITLE5=With Body And Soul - Koerner, Ray and Glover
TTITLE6=Deliah's Gone - Koerner, Ray and Glover
TTITLE7=France Blues - Koerner, Ray and Glover
TTITLE8=Dodger - Koerner, Ray and Glover
TTITLE9='Way Back Down Home - Koerner, Ray and Glover
TTITLE10=Power Tool - Koerner, Ray and Glover
TTITLE11=Pick Poor Robin Clean - Koerner, Ray and Glover
TTITLE12=Boys Were Shooting It Out - Koerner, Ray and Glover
TTITLE13=You Got To Move - Koerner, Ray and Glover
TTITLE14=I Ain't Blue - Koerner, Ray and Glover
TTITLE15=Black Dog Blues - Koerner, Ray and Glover
EXTD=
EXTT0=
EXTT1=
EXTT2=
EXTT3=
EXTT4=
EXTT5=
EXTT6=
EXTT7=
EXTT8=
EXTT9=
EXTT10=
EXTT11=
EXTT12=
EXTT13=
EXTT14=
EXTT15=
PLAYORDER=
